<svg width="55" height="55" viewBox="0 0 55 55" fill="none" xmlns="http://www.w3.org/2000/svg">
<circle cx="27.5" cy="27.5" r="27.5" fill="#004777"/>
<path d="M27.5 13C18.9362 13 12 19.8869 12 28.3806C12 35.1775 16.4407 40.9413 22.5981 42.9735C23.3731 43.1182 23.6573 42.6422 23.6573 42.2339C23.6573 41.8687 23.6444 40.9009 23.6379 39.6187C19.3263 40.5461 18.417 37.5553 18.417 37.5553C17.7117 35.7801 16.6926 35.3053 16.6926 35.3053C15.2886 34.3519 16.8011 34.3714 16.8011 34.3714C18.3576 34.4784 19.1752 35.9562 19.1752 35.9562C20.5573 38.3079 22.8035 37.6283 23.6896 37.2357C23.8291 36.2405 24.2282 35.5636 24.6713 35.1788C21.229 34.794 17.611 33.4714 17.611 27.5785C17.611 25.8998 18.2116 24.5277 19.2062 23.4516C19.0318 23.0629 18.5087 21.499 19.3418 19.3808C19.3418 19.3808 20.64 18.9686 23.6043 20.9577C24.8443 20.616 26.1618 20.4464 27.4793 20.4386C28.7968 20.4464 30.1143 20.616 31.3543 20.9577C34.2993 18.9686 35.5975 19.3808 35.5975 19.3808C36.4306 21.499 35.9075 23.0629 35.7525 23.4516C36.7406 24.5277 37.3412 25.8998 37.3412 27.5785C37.3412 33.4871 33.7181 34.7875 30.2693 35.1658C30.8118 35.6275 31.3156 36.5705 31.3156 38.0118C31.3156 40.07 31.2962 41.7239 31.2962 42.2235C31.2962 42.6265 31.5675 43.1078 32.3618 42.9539C38.5631 40.9348 43 35.1671 43 28.3806C43 19.8869 36.0599 13 27.5 13Z" fill="white"/>
</svg>
