<svg width="55" height="55" viewBox="0 0 55 55" fill="none" xmlns="http://www.w3.org/2000/svg">
<circle cx="27.5" cy="27.5" r="27.5" fill="#004777"/>
<path d="M39.994 38V37.999H40V29.197C40 24.891 39.073 21.574 34.039 21.574C31.619 21.574 29.995 22.902 29.332 24.161H29.262V21.976H24.489V37.999H29.459V30.065C29.459 27.976 29.855 25.956 32.442 25.956C34.991 25.956 35.029 28.34 35.029 30.199V38H39.994Z" fill="white"/>
<path d="M16.396 21.977H21.372V38H16.396V21.977Z" fill="white"/>
<path d="M18.882 14C17.291 14 16 15.291 16 16.882C16 18.473 17.291 19.791 18.882 19.791C20.473 19.791 21.764 18.473 21.764 16.882C21.763 15.291 20.472 14 18.882 14V14Z" fill="white"/>
</svg>
