<svg width="1680" height="570" viewBox="0 0 1680 570" fill="none" xmlns="http://www.w3.org/2000/svg">
<path d="M2 2H1678V482.788C1676.9 482.518 1675.44 482.164 1673.66 481.735C1669.25 480.672 1662.83 479.146 1654.79 477.29C1638.73 473.579 1616.2 468.551 1590.37 463.284C1538.74 452.753 1473.8 441.249 1420.83 437.414C1285.58 427.622 1159.57 459.717 1033.58 494.35C1025.89 496.465 1018.19 498.59 1010.5 500.715C892.084 533.41 773.188 566.239 645.71 566.978C483.153 567.921 321.886 540.833 201.228 513.496C140.906 499.829 90.7507 486.104 55.6799 475.796C38.1448 470.643 24.3816 466.344 15.0051 463.334C10.3169 461.83 6.72544 460.647 4.30757 459.842C3.35443 459.524 2.58367 459.265 2 459.068V225V2Z" fill="url(#paint0_linear)" stroke="#CDDFFA" stroke-width="4"/>
<defs>
<linearGradient id="paint0_linear" x1="1011.17" y1="238.949" x2="1011.17" y2="436.403" gradientUnits="userSpaceOnUse">
<stop stop-color="white" stop-opacity="0"/>
<stop offset="0.78125" stop-color="#E6EFFC"/>
</linearGradient>
</defs>
</svg>
